<svg id="Capa_1" data-name="Capa 1" xmlns="http://www.w3.org/2000/svg" xmlns:xlink="http://www.w3.org/1999/xlink" viewBox="0 0 836.97 950.14"><defs><style>.cls-1{fill:url(#Degradado_sin_nombre_146);}.cls-2{fill:url(#Degradado_sin_nombre_44);}.cls-3{fill:url(#Degradado_sin_nombre_14);}</style><radialGradient id="Degradado_sin_nombre_146" cx="242.99" cy="308.06" r="448.96" gradientTransform="matrix(0.84, 0.54, -0.44, 0.67, 173.17, -31.69)" gradientUnits="userSpaceOnUse"><stop offset="0" stop-color="#fff"/><stop offset="0.02" stop-color="#f0fafe"/><stop offset="0.14" stop-color="#a6e1f7"/><stop offset="0.23" stop-color="#71cff2"/><stop offset="0.3" stop-color="#50c3ef"/><stop offset="0.34" stop-color="#43bfee"/><stop offset="0.43" stop-color="#3ca4d0"/><stop offset="0.63" stop-color="#2f7098"/><stop offset="0.79" stop-color="#264a6f"/><stop offset="0.92" stop-color="#203356"/><stop offset="1" stop-color="#1e2a4d"/></radialGradient><radialGradient id="Degradado_sin_nombre_44" cx="498.71" cy="546.7" r="461.13" gradientTransform="translate(715.61 46.5) rotate(89.61) scale(1 0.4)" gradientUnits="userSpaceOnUse"><stop offset="0" stop-color="#ffe725"/><stop offset="0.13" stop-color="#fedf26"/><stop offset="0.35" stop-color="#fac729"/><stop offset="0.61" stop-color="#f4a22e"/><stop offset="0.92" stop-color="#ec6e34"/><stop offset="1" stop-color="#ea5e36"/></radialGradient><linearGradient id="Degradado_sin_nombre_14" x1="431.92" y1="759.42" x2="552.69" y2="834.02" gradientUnits="userSpaceOnUse"><stop offset="0" stop-color="#fff"/><stop offset="0.23" stop-color="#43bfee"/><stop offset="0.26" stop-color="#40b3e1"/><stop offset="0.39" stop-color="#368ab4"/><stop offset="0.51" stop-color="#2d678f"/><stop offset="0.64" stop-color="#274c72"/><stop offset="0.76" stop-color="#22395d"/><stop offset="0.88" stop-color="#1f2e51"/><stop offset="1" stop-color="#1e2a4d"/></linearGradient></defs><title>muelita_gaston-01</title><path class="cls-1" d="M315.13,688c-45.52-76.47-94.51-139.69-139.94-206.31-22.3-32.7-44.92-65.06-64.47-100.18A272.22,272.22,0,0,1,86,321.39c-11.93-43.17,0-77.59,35.52-96.18C153.84,208.32,188.71,204,223.71,202c86.09-4.87,170.91,9,255.79,23.21,81.24,13.61,162.73,17.62,244,.09,18.39-4,41.21-6.19,45.58-32.62s-17.42-35.18-32.7-45.41c-63.16-42.33-132.91-59.61-204-70.83-107-16.9-212.23-11.77-313.54,37-17.27,8.32-33.63,19.24-51.41,26.93,26.27-29.49,56.81-51.13,90.4-66.79C345.65,32.66,437.05,21.83,531,25.65c95.18,3.86,187.84,21,277.3,59.37,30.56,13.11,60.13,29,85.6,53.85,34.3,33.5,33.09,69.39-5.74,95.87-42,28.64-89.6,36.92-136.69,45-126.5,21.59-252.87,19.22-379.18-3.9-31-5.68-114.37-33.48-151.62,19.19-26.07,43.24,9.6,126.49,15.75,151.34,16.83,68.11,42.48,132.23,67.55,196.55C308.48,654.53,314.87,665.45,315.13,688Z" transform="translate(-81.52 -24.93)"/><path class="cls-2" d="M146.89,527.11c42.9,29.41,76.34,70.67,105.29,117.22,26,41.72,43.72,88.42,58.62,136.76,3.23,10.49,6.69,20.92,10.76,31,6.29,15.54,15.11,17.5,26.33,5.94,14.82-15.28,23.15-34.95,29.7-56.29,15.93-51.88,20.71-107.1,35.17-159.36,10.38-37.48,22.49-74.22,54.54-94.36,30.73-19.32,55.81-14.72,79.61,14.74,32,39.6,46.45,90.5,63.12,139.67,11.42,33.71,20.62,68.44,31.37,102.47,3.45,10.93,4.89,28,16.36,28,13.15,0,13.89-18.22,17.4-29.68,14.22-46.47,24.19-94.44,33.55-142.51,13.27-68.22,28.5-135.54,57.78-197.3C786.6,381,812,344.44,845,316.27,850.74,311.4,864.25,300,880,296c-8.56,9.72-22.81,38.31-34.69,60.47-27.88,51.95-45.15,110.09-59.68,169.76-25.27,103.82-37.86,211.33-66.16,314.27-10.05,36.55-23,71.44-45.6,100.12-21.26,27-39.7,24.69-53.9-8.07-21.94-50.66-26-107-35.3-161.6C573.66,706.25,566,640.53,544,579c-7.21-20.11-15.22-40.3-37.26-41.5-23.14-1.27-35.93,15.88-45.43,38-21.31,49.6-19.56,105-28.46,157.61-12.41,73.41-27.11,145.54-63,209.11-25,44.17-46.33,43.93-68.29-1.88C276,887.26,263.28,828.19,246,771.34,220.1,686.18,193.41,601.79,146.89,527.11Z" transform="translate(-81.52 -24.93)"/><path class="cls-3" d="M548.15,736.24c-7.35,51.78-7.61,100.91-36.9,139.93-12.71,16.93-28.75,14.13-41.71-1.37-18.69-22.35-28-50.09-32.69-82.11,12.5,2.69,17.11,13.44,23.88,20.59,22.7,23.92,31.37,23,49.6-4.72,9.35-14.21,14.84-30.42,20.86-46.54A92,92,0,0,1,548.15,736.24Z" transform="translate(-81.52 -24.93)"/></svg>